<svg xmlns="http://www.w3.org/2000/svg" viewBox="0 0 1600 1000" width="1600" height="1000" preserveAspectRatio="xMidYMid slice">
<defs>
<linearGradient id="g3" x1="0%" y1="0%" x2="100%" y2="100%"><stop offset="0%" stop-color="#11455A"/><stop offset="58%" stop-color="#0A2C3B"/><stop offset="100%" stop-color="#061E29"/></linearGradient><radialGradient id="g3glow" cx="80%" cy="88%" r="60%"><stop offset="0%" stop-color="#19A8C7" stop-opacity="0.30"/><stop offset="100%" stop-color="#19A8C7" stop-opacity="0"/></radialGradient>
</defs>
<rect width="1600" height="1000" fill="url(#g3)"/><rect width="1600" height="1000" fill="url(#g3glow)"/><g stroke="#19A8C7" stroke-width="1.4" opacity="0.10"><line x1="1596" y1="971" x2="1790" y2="1165"/><line x1="171" y1="17" x2="442" y2="288"/><line x1="628" y1="433" x2="845" y2="650"/><line x1="1085" y1="366" x2="1238" y2="519"/><line x1="1486" y1="196" x2="1674" y2="384"/><line x1="910" y1="14" x2="1086" y2="190"/><line x1="1270" y1="465" x2="1396" y2="591"/><line x1="216" y1="87" x2="463" y2="334"/><line x1="862" y1="20" x2="1113" y2="271"/><line x1="1285" y1="751" x2="1515" y2="981"/><line x1="735" y1="789" x2="869" y2="923"/><line x1="421" y1="801" x2="550" y2="930"/><line x1="1206" y1="377" x2="1494" y2="665"/><line x1="352" y1="635" x2="527" y2="810"/></g><g><circle cx="1505" cy="371" r="2.5" fill="#ffffff" opacity="0.23"/><circle cx="643" cy="586" r="3" fill="#19A8C7" opacity="0.15"/><circle cx="989" cy="604" r="2" fill="#1CA0DC" opacity="0.15"/><circle cx="365" cy="546" r="2" fill="#ffffff" opacity="0.21"/><circle cx="168" cy="100" r="1.5" fill="#1CA0DC" opacity="0.21"/><circle cx="1173" cy="287" r="1.5" fill="#ffffff" opacity="0.18"/><circle cx="590" cy="555" r="3" fill="#ffffff" opacity="0.21"/><circle cx="529" cy="153" r="1.5" fill="#19A8C7" opacity="0.23"/><circle cx="1009" cy="243" r="2" fill="#ffffff" opacity="0.27"/><circle cx="1213" cy="102" r="2" fill="#1CA0DC" opacity="0.19"/><circle cx="69" cy="57" r="3" fill="#1CA0DC" opacity="0.12"/><circle cx="462" cy="703" r="2" fill="#19A8C7" opacity="0.25"/><circle cx="116" cy="551" r="1.5" fill="#1CA0DC" opacity="0.18"/><circle cx="772" cy="502" r="1.5" fill="#C2D62E" opacity="0.13"/><circle cx="954" cy="561" r="3" fill="#C2D62E" opacity="0.27"/><circle cx="442" cy="93" r="2" fill="#19A8C7" opacity="0.23"/><circle cx="1142" cy="832" r="2.5" fill="#C2D62E" opacity="0.14"/><circle cx="337" cy="922" r="3" fill="#19A8C7" opacity="0.24"/><circle cx="1344" cy="913" r="2" fill="#1CA0DC" opacity="0.26"/><circle cx="1408" cy="829" r="1.5" fill="#1CA0DC" opacity="0.23"/><circle cx="1309" cy="763" r="2.5" fill="#C2D62E" opacity="0.19"/><circle cx="612" cy="790" r="2.5" fill="#19A8C7" opacity="0.14"/><circle cx="1292" cy="142" r="3" fill="#ffffff" opacity="0.16"/><circle cx="1352" cy="80" r="1.5" fill="#ffffff" opacity="0.16"/><circle cx="1148" cy="980" r="3" fill="#1CA0DC" opacity="0.28"/><circle cx="557" cy="4" r="3" fill="#ffffff" opacity="0.12"/><circle cx="290" cy="767" r="2" fill="#1CA0DC" opacity="0.25"/><circle cx="61" cy="177" r="3" fill="#1CA0DC" opacity="0.27"/><circle cx="860" cy="716" r="3" fill="#ffffff" opacity="0.22"/><circle cx="1104" cy="737" r="2.5" fill="#C2D62E" opacity="0.16"/><circle cx="176" cy="231" r="3" fill="#19A8C7" opacity="0.18"/><circle cx="36" cy="689" r="3" fill="#1CA0DC" opacity="0.17"/><circle cx="654" cy="417" r="2.5" fill="#ffffff" opacity="0.16"/><circle cx="698" cy="164" r="1.5" fill="#1CA0DC" opacity="0.19"/><circle cx="1367" cy="489" r="2.5" fill="#ffffff" opacity="0.23"/><circle cx="786" cy="222" r="2" fill="#ffffff" opacity="0.2"/><circle cx="226" cy="635" r="1.5" fill="#1CA0DC" opacity="0.16"/><circle cx="1576" cy="452" r="1.5" fill="#19A8C7" opacity="0.16"/><circle cx="227" cy="253" r="1.5" fill="#1CA0DC" opacity="0.19"/><circle cx="163" cy="282" r="2.5" fill="#C2D62E" opacity="0.21"/><circle cx="1273" cy="857" r="2" fill="#19A8C7" opacity="0.24"/><circle cx="810" cy="625" r="2.5" fill="#ffffff" opacity="0.28"/><circle cx="1279" cy="937" r="1.5" fill="#C2D62E" opacity="0.28"/><circle cx="1527" cy="186" r="2" fill="#19A8C7" opacity="0.22"/><circle cx="284" cy="954" r="3" fill="#ffffff" opacity="0.26"/><circle cx="604" cy="583" r="1.5" fill="#19A8C7" opacity="0.22"/><circle cx="1211" cy="104" r="1.5" fill="#ffffff" opacity="0.14"/><circle cx="189" cy="163" r="2" fill="#C2D62E" opacity="0.27"/><circle cx="648" cy="775" r="3" fill="#C2D62E" opacity="0.23"/><circle cx="1088" cy="666" r="2.5" fill="#C2D62E" opacity="0.19"/><circle cx="1351" cy="978" r="2.5" fill="#C2D62E" opacity="0.18"/><circle cx="1585" cy="317" r="3" fill="#19A8C7" opacity="0.18"/><circle cx="1483" cy="215" r="2" fill="#C2D62E" opacity="0.17"/><circle cx="865" cy="59" r="2.5" fill="#19A8C7" opacity="0.24"/><circle cx="967" cy="842" r="3" fill="#C2D62E" opacity="0.18"/><circle cx="645" cy="35" r="3" fill="#ffffff" opacity="0.25"/><circle cx="816" cy="841" r="3" fill="#ffffff" opacity="0.27"/><circle cx="1098" cy="920" r="2" fill="#1CA0DC" opacity="0.27"/><circle cx="389" cy="676" r="1.5" fill="#1CA0DC" opacity="0.19"/><circle cx="6" cy="400" r="2.5" fill="#1CA0DC" opacity="0.13"/><circle cx="69" cy="431" r="2.5" fill="#1CA0DC" opacity="0.28"/><circle cx="1516" cy="687" r="2" fill="#ffffff" opacity="0.14"/><circle cx="130" cy="769" r="1.5" fill="#1CA0DC" opacity="0.27"/><circle cx="867" cy="484" r="2.5" fill="#C2D62E" opacity="0.14"/><circle cx="36" cy="768" r="2" fill="#C2D62E" opacity="0.26"/><circle cx="639" cy="275" r="3" fill="#ffffff" opacity="0.2"/><circle cx="1118" cy="960" r="2.5" fill="#ffffff" opacity="0.27"/><circle cx="45" cy="225" r="1.5" fill="#C2D62E" opacity="0.23"/><circle cx="286" cy="683" r="2.5" fill="#19A8C7" opacity="0.28"/><circle cx="226" cy="978" r="1.5" fill="#19A8C7" opacity="0.27"/><circle cx="69" cy="737" r="1.5" fill="#1CA0DC" opacity="0.2"/><circle cx="557" cy="557" r="1.5" fill="#1CA0DC" opacity="0.26"/><circle cx="404" cy="942" r="2" fill="#19A8C7" opacity="0.15"/><circle cx="445" cy="500" r="2" fill="#19A8C7" opacity="0.16"/><circle cx="0" cy="614" r="1.5" fill="#1CA0DC" opacity="0.21"/><circle cx="1171" cy="431" r="1.5" fill="#19A8C7" opacity="0.14"/><circle cx="28" cy="362" r="1.5" fill="#1CA0DC" opacity="0.26"/><circle cx="167" cy="467" r="2.5" fill="#ffffff" opacity="0.23"/><circle cx="1253" cy="35" r="2" fill="#C2D62E" opacity="0.17"/><circle cx="235" cy="146" r="2" fill="#C2D62E" opacity="0.25"/></g><polygon points="1366.8,982.3 1386.1,1004.5 1357.2,1010.2" fill="none" stroke="#19A8C7" stroke-width="1.4" opacity="0.12"/><polygon points="379.7,552.5 319.1,550.4 351.2,499.0" fill="none" stroke="#C2D62E" stroke-width="1.4" opacity="0.13"/><polygon points="1250.2,134.9 1189.0,102.4 1247.8,65.7" fill="none" stroke="#C2D62E" stroke-width="1.4" opacity="0.16"/><polygon points="712.2,68.1 739.2,46.3 744.6,80.5" fill="none" stroke="#19A8C7" stroke-width="1.4" opacity="0.19"/><polygon points="182.3,724.7 216.2,711.7 210.5,747.6" fill="none" stroke="#C2D62E" stroke-width="1.4" opacity="0.18"/><polygon points="875.5,450.8 883.9,484.4 850.6,474.8" fill="none" stroke="#C2D62E" stroke-width="1.4" opacity="0.17"/><polygon points="512.1,356.7 491.1,341.4 514.8,330.9" fill="none" stroke="#C2D62E" stroke-width="1.4" opacity="0.19"/><polygon points="337.7,53.7 314.2,101.9 284.1,57.4" fill="none" stroke="#19A8C7" stroke-width="1.4" opacity="0.1"/><polygon points="77.9,496.7 36.2,441.4 104.9,432.9" fill="none" stroke="#C2D62E" stroke-width="1.4" opacity="0.21"/><polygon points="522.8,326.0 579.9,355.1 526.2,390.0" fill="none" stroke="#C2D62E" stroke-width="1.4" opacity="0.18"/><polygon points="1361.1,330.5 1400.5,336.8 1375.4,367.7" fill="none" stroke="#C2D62E" stroke-width="1.4" opacity="0.21"/><polygon points="182.7,406.6 233.7,390.0 222.6,442.5" fill="none" stroke="#19A8C7" stroke-width="1.4" opacity="0.18"/><polygon points="65.3,184.7 12.6,201.8 24.1,147.6" fill="none" stroke="#C2D62E" stroke-width="1.4" opacity="0.1"/><polygon points="1614.2,365.1 1557.2,339.8 1607.6,303.1" fill="none" stroke="#C2D62E" stroke-width="1.4" opacity="0.2"/><polygon points="1336.1,778.4 1394.0,768.1 1373.9,823.5" fill="none" stroke="#19A8C7" stroke-width="1.4" opacity="0.18"/><polygon points="1443.4,171.5 1405.1,144.6 1447.5,124.9" fill="none" stroke="#19A8C7" stroke-width="1.4" opacity="0.16"/><rect x="1042" y="528" width="56" height="56" rx="5.0" fill="none" stroke="#ffffff" stroke-width="1.2" transform="rotate(79 1070 556)" opacity="0.1"/><rect x="1033" y="395" width="30" height="30" rx="2.7" fill="none" stroke="#ffffff" stroke-width="1.2" transform="rotate(76 1048 410)" opacity="0.08"/><rect x="1470" y="333" width="28" height="28" rx="2.5" fill="none" stroke="#ffffff" stroke-width="1.2" transform="rotate(1 1484 347)" opacity="0.11"/><rect x="602" y="549" width="24" height="24" rx="2.2" fill="none" stroke="#ffffff" stroke-width="1.2" transform="rotate(62 614 561)" opacity="0.09"/><rect x="1455" y="937" width="22" height="22" rx="2.0" fill="none" stroke="#ffffff" stroke-width="1.2" transform="rotate(52 1466 948)" opacity="0.1"/><rect x="146" y="266" width="30" height="30" rx="2.7" fill="none" stroke="#ffffff" stroke-width="1.2" transform="rotate(14 161 281)" opacity="0.06"/><rect x="1230" y="211" width="42" height="42" rx="3.8" fill="none" stroke="#ffffff" stroke-width="1.2" transform="rotate(54 1251 232)" opacity="0.11"/><rect x="491" y="604" width="24" height="24" rx="2.2" fill="none" stroke="#ffffff" stroke-width="1.2" transform="rotate(80 503 616)" opacity="0.09"/><rect x="517" y="246" width="32" height="32" rx="2.9" fill="none" stroke="#ffffff" stroke-width="1.2" transform="rotate(27 533 262)" opacity="0.1"/><rect x="1076" y="126" width="50" height="50" rx="4.5" fill="none" stroke="#ffffff" stroke-width="1.2" transform="rotate(41 1101 151)" opacity="0.1"/><rect x="1478" y="398" width="40" height="40" rx="3.6" fill="none" stroke="#ffffff" stroke-width="1.2" transform="rotate(47 1498 418)" opacity="0.09"/><rect x="1193" y="425" width="22" height="22" rx="2.0" fill="none" stroke="#ffffff" stroke-width="1.2" transform="rotate(48 1204 436)" opacity="0.11"/></svg>
